<svg xmlns="http://www.w3.org/2000/svg" xml:space="preserve" x="0px" y="0px" baseProfile="tiny" version="1.2" viewBox="0 0 73 52"><path d="M7.44 9.76c-.08-.39.02-.54.39-.54.63 0 .66-.06.6-.69-.11-1.12-.11-1.12-1.25-1.12h-.47c-1.17 0-1.46.2-1.9 1.27-.15.36-.04.46.6.6.07.31.01.5-.38.49-.7-.01-1.41 0-2.13 0-.05-.33-.05-.55.35-.55.54.01.91-.28 1.17-.73C5.65 6.4 6.88 4.32 8.1 2.24c.07-.12.12-.27.22-.36a.8.8 0 0 1 .44-.17c.05 0 .15.21.16.33.13 1.38.25 2.76.37 4.13l.21 2.39c.06.65.06.65.69.66.11 0 .21.01.33.02.07.38-.03.54-.43.53-.87-.02-1.76-.01-2.65-.01zM8 3.54c-.04-.01-.08-.03-.13-.04-.65 1.1-1.3 2.19-1.98 3.34h2.39c-.09-1.13-.19-2.21-.28-3.3zM2.26 45.77c-.04-.33.13-.38.39-.39.81-.02.82-.02 1.02-.82l1.32-5.3c.04-.16.06-.33.1-.56-.27-.01-.5-.01-.72-.04-.11-.02-.21-.11-.32-.17.1-.09.2-.25.3-.25 1.41-.01 2.83 0 4.24.01.21 0 .43.08.64.15 1.2.43 1.48 1.62.54 2.48-.43.39-.98.63-1.47.94.06.02.18.07.31.11 1.08.4 1.44 1.43.81 2.4-.58.9-1.44 1.43-2.5 1.47-1.46.06-2.92.01-4.38.01-.1.01-.19-.03-.28-.04zm2.21-.39h1.99c1.24-.01 2.21-1.1 2.09-2.34-.06-.58-.47-1.04-1.01-1.06-.66-.02-1.32-.02-1.98 0-.11 0-.29.14-.32.24-.27 1.02-.5 2.04-.77 3.16zm.91-3.79c.22.01.36.02.5.02.5 0 1 .03 1.5-.01.85-.07 1.66-.88 1.78-1.7.09-.64-.28-1.2-.86-1.22-.62-.03-1.25-.02-1.88 0-.12 0-.31.13-.34.23-.24.87-.46 1.74-.7 2.68z"/><path fill="none" stroke="#000" stroke-miterlimit="10" d="M12 6.84h19M12 42.5h19"/><path fill="#FFF" d="M31.5 3.3h19v19.4h-19z"/><path d="M50 3.8v18.4H32V3.8h18m1-1H31v20.4h20V2.8z"/><path fill="none" stroke="#000" stroke-miterlimit="10" d="M50.5 13.5H59"/><path fill="#FFF" d="M31.5 28.5h19v19.4h-19z"/><path d="M50 29v18.4H32V29h18m1-1H31v20.4h20V28z"/><path fill="none" stroke="#000" stroke-miterlimit="10" d="M50.5 38.5H59"/><path d="M43.78 10.47v-.75c.33-.14.64-.32.93-.53.29-.21.56-.46.81-.74h1.08v9.1h-1.03V9.58h-.01c-.27.22-.55.4-.82.56-.28.16-.55.29-.83.39-.09.03-.13.01-.13-.06zM42 11.05v.65h-6.74v-.65H42zm0 3.59v.65h-6.74v-.65H42z"/><path fill="none" stroke="#000" stroke-miterlimit="10" d="M26 19.58V34h5M26 7v10.34"/><path fill="none" stroke="#000" stroke-miterlimit="10" d="M31.5 18.5h-12v24"/><circle cx="19.5" cy="42.5" r="2" fill-rule="evenodd"/><circle cx="26" cy="7" r="2" fill-rule="evenodd"/><path d="M66.56 9.4c.16-.21.38-.49.65-.85.04.17.07.23.06.28-.19.8-.39 1.6-.6 2.39-.03.11-.18.18-.28.27-.05-.12-.1-.24-.14-.36-.01-.03.01-.06.01-.1.08-1.09-.38-1.8-1.25-1.92-1.03-.14-2.03.56-2.21 1.53-.12.65.16 1.14.79 1.33.39.12.79.22 1.19.32 1.01.26 1.48.9 1.43 1.94-.1 1.9-1.94 3.32-3.75 2.85-.43-.11-.81-.4-1.25-.63-.21.22-.46.49-.71.75-.05-.02-.11-.05-.16-.07.24-.93.47-1.86.72-2.79.01-.05.18-.06.33-.1-.02.31-.04.55-.04.79-.01.7.34 1.19.98 1.44 1.41.55 2.92-.42 2.91-1.87 0-.64-.26-.98-.87-1.14-.41-.11-.83-.21-1.24-.32-.99-.28-1.44-1-1.29-2.01.25-1.62 1.91-2.78 3.47-2.39.38.11.72.38 1.25.66zM68.42 34.63c.38-.35.72-.68 1.07-1.01.04.02.08.05.12.07-.16.66-.32 1.32-.49 1.99-.08.33-.15.68-.27 1-.06.15-.23.25-.35.37-.04-.03-.09-.06-.13-.09 0-.36.02-.71 0-1.07-.11-1.38-.99-2.02-2.33-1.71-1.59.36-2.6 1.39-3.1 2.87-.27.81-.46 1.7-.43 2.54.05 1.48 1.37 2.35 2.82 1.99 1.2-.29 1.95-1.09 2.43-2.19.05-.11.05-.23.12-.32.06-.08.17-.12.26-.17.04.09.08.18.11.28.01.04-.02.09-.04.14-.54 1.87-2.6 3.15-4.48 2.8-1.41-.26-2.4-1.5-2.44-3.05-.07-2.63 2.51-5.35 5.14-5.42.81-.02 1.47.28 1.99.98zM42.98 37.96c-.05-.1-.02-.14.08-.14h.96c.09.59.09 1.14.01 1.66-.08.51-.23.98-.46 1.4v.02l1.74 1.85h-1.33l-.95-1.06h-.02c-.33.4-.72.72-1.18.95s-.98.35-1.57.35c-.23 0-.45-.01-.65-.02-.2-.02-.39-.05-.56-.09a2.775 2.775 0 0 1-1.01-.46c-.29-.22-.51-.49-.68-.82s-.25-.72-.25-1.16c0-.29.06-.56.17-.82.11-.26.26-.51.45-.75s.41-.48.66-.71c.25-.23.52-.46.81-.68v-.05c-.14-.17-.28-.33-.4-.49-.12-.16-.23-.32-.33-.48-.1-.16-.17-.33-.22-.51-.05-.18-.08-.37-.08-.59 0-.26.04-.5.13-.72s.21-.42.37-.58c.16-.16.37-.29.61-.39.24-.1.52-.14.84-.14.68 0 1.2.15 1.55.45s.53.69.53 1.18c0 .27-.05.52-.14.75-.09.23-.21.44-.37.64-.15.2-.32.38-.52.55s-.38.33-.58.48v.02l2.24 2.51h.02c.17-.34.25-.69.25-1.07.03-.39-.02-.74-.12-1.08zm-3.14.16c-.25.18-.47.36-.67.54-.2.17-.37.35-.51.53-.14.18-.25.37-.32.57-.08.2-.11.43-.11.67a1.514 1.514 0 0 0 .61 1.25c.18.14.39.25.62.32s.47.11.71.11c.48 0 .91-.1 1.28-.31s.69-.48.94-.83v-.02l-2.51-2.83h-.04zm.13-1.17c.18-.13.35-.25.5-.38.15-.13.28-.25.39-.39.11-.14.19-.28.25-.44s.09-.33.09-.53c0-.26-.08-.47-.25-.65s-.44-.26-.83-.26c-.29 0-.52.09-.71.28s-.27.42-.27.72c0 .16.02.31.05.44.03.14.08.27.15.39s.15.25.25.38.22.28.35.44h.03z"/></svg>